<svg width="15" height="15" viewBox="0 0 15 15" fill="none" xmlns="http://www.w3.org/2000/svg">
<path d="M12.2186 4.74286L12.2186 4.74285C12.2762 4.68523 12.3446 4.63953 12.4199 4.60834C12.4952 4.57716 12.5759 4.56111 12.6574 4.56111C12.7388 4.56111 12.8195 4.57716 12.8948 4.60834C12.9701 4.63953 13.0385 4.68523 13.0961 4.74285C13.1537 4.80047 13.1995 4.86888 13.2306 4.94416C13.2618 5.01945 13.2779 5.10014 13.2779 5.18162C13.2779 5.26311 13.2618 5.3438 13.2306 5.41909C13.1995 5.49437 13.1537 5.56277 13.0961 5.62039L7.78238 10.9341L12.2186 4.74286ZM12.2186 4.74286L7.34346 9.61885L12.2186 4.74286ZM7.51318 10.9053L7.58106 11.0689C7.50574 11.1002 7.425 11.1163 7.34346 11.1163C7.26191 11.1163 7.18117 11.1002 7.10585 11.0689L7.17374 10.9053L7.10585 11.0689C7.0306 11.0377 6.96224 10.992 6.90469 10.9343L7.51318 10.9053ZM7.51318 10.9053L7.58107 11.0689M7.51318 10.9053L7.58107 11.0689M1.59063 4.74301C1.64821 4.68528 1.71663 4.63947 1.79195 4.60822C1.86726 4.57696 1.94801 4.56088 2.02955 4.56088C2.1111 4.56088 2.19184 4.57696 2.26716 4.60822C2.34244 4.63945 2.41082 4.68523 2.46839 4.74292L2.46834 4.74286L2.34307 4.8681L2.46848 4.74301L1.59063 4.74301ZM1.59063 4.74301L1.71603 4.8681L1.59063 4.74301ZM7.58107 11.0689C7.65631 11.0377 7.72467 10.992 7.78223 10.9343L7.58107 11.0689ZM1.59094 5.62055L6.90453 10.9341L1.71603 5.49514L1.59078 5.62039L1.59085 5.62046C1.59088 5.62049 1.59091 5.62052 1.59094 5.62055Z" fill="#1D252C" stroke="#1D252C" stroke-width="0.35426"/>
</svg>
