<svg width="25" height="25" viewBox="0 0 25 25" fill="none" xmlns="http://www.w3.org/2000/svg">
<path fill-rule="evenodd" clip-rule="evenodd" d="M5.18659 3.002L24.1224 2.91742C24.4538 2.91594 24.7236 3.18336 24.7251 3.51473L24.7278 4.11472C24.7235 5.11061 24.459 6.08808 23.9604 6.95018L21.1626 11.9187C20.5573 13.0182 19.4134 13.7133 18.1587 13.7442L10.6828 13.7776C10.4234 13.7731 10.1654 13.738 9.9143 13.673L8.72552 16.1863L21.7814 16.128C22.1128 16.1265 22.3826 16.394 22.3841 16.7253L22.3894 17.9253C22.3909 18.2567 22.1235 18.5265 21.7921 18.528L6.79226 18.595C6.46389 18.6041 6.15602 18.4358 5.98628 18.1546L5.72025 17.6998C5.58031 17.4333 5.57889 17.1154 5.71644 16.8478L7.92859 12.3978C7.80613 12.2697 7.69695 12.1294 7.60272 11.9793L2.42662 3.01433L1.32263 3.01926C0.991261 3.02074 0.721435 2.75332 0.719955 2.42195L0.714594 1.22196C0.713114 0.890594 0.980541 0.620767 1.31191 0.619287L2.4159 0.614356C3.27672 0.607093 4.07549 1.06142 4.50924 1.80502L5.18659 3.002ZM7.99764 19.7899C6.67217 19.7958 5.60247 20.8751 5.60839 22.2006C5.61431 23.5261 6.69362 24.5958 8.01909 24.5899C9.34456 24.5839 10.4143 23.5046 10.4083 22.1792C10.4024 20.8537 9.32311 19.784 7.99764 19.7899ZM22.4082 22.1256C22.4141 23.451 21.3444 24.5303 20.019 24.5363C18.6935 24.5422 17.6142 23.4725 17.6083 22.147C17.6023 20.8215 18.6721 19.7422 19.9975 19.7363C21.323 19.7304 22.4023 20.8001 22.4082 22.1256Z" fill="black"/>
</svg>
