<svg width="172" height="28" viewBox="0 0 172 28" fill="none" xmlns="http://www.w3.org/2000/svg">
<path d="M0.501586 18.1617C0.795934 17.1838 1.05728 16.5335 1.28562 16.2108C1.92479 15.2658 2.60509 14.5275 3.32653 13.9957C4.05945 13.464 4.7185 13.1106 5.30366 12.9357C6.06095 12.714 6.67511 12.6021 7.14616 12.6C8.22611 12.5952 9.09965 12.6774 9.76677 12.8468C10.4338 13.0047 10.9921 13.2377 11.4416 13.5459C12.0869 13.9911 12.606 14.4426 12.9986 14.9004C13.3913 15.3582 13.7097 15.8968 13.9537 16.5161C14.2092 17.1354 14.3505 17.8873 14.3774 18.7718L12.4643 18.7459C11.9358 18.7482 10.7752 18.7017 8.98252 18.6063C8.31596 18.5634 7.8563 18.5424 7.60355 18.5436C7.52312 18.5439 6.90275 18.5524 5.74243 18.5691L4.26037 18.5757C4.23811 18.7367 4.22723 18.8746 4.22775 18.9895C4.23047 19.5984 4.30802 20.2414 4.4604 20.9186C4.61273 21.5843 4.83941 22.175 5.14043 22.6906C5.4414 23.1948 5.81099 23.6297 6.24921 23.9954C6.69892 24.3611 7.15965 24.6233 7.63141 24.782L8.63241 25.105C9.51705 25.101 10.1086 25.0697 10.4071 25.0109C10.958 24.8935 11.4399 24.7478 11.8527 24.5736C12.277 24.3879 12.7869 24.0811 13.3824 23.6534C13.7973 23.9502 14.1432 24.2187 14.42 24.4587C13.414 25.5776 12.3664 26.3923 11.2772 26.9027C10.1994 27.4015 8.98847 27.654 7.64427 27.66C6.73665 27.664 5.99526 27.5869 5.4201 27.4286C4.64942 27.2253 3.95293 26.9124 3.33064 26.4901C2.70834 26.0678 2.17175 25.5417 1.72086 24.9118C1.26997 24.2819 0.933895 23.6343 0.71263 22.9689C0.421508 22.097 0.274767 21.3969 0.272406 20.8684C0.267941 19.8688 0.344335 18.9666 0.501586 18.1617ZM10.5108 17.3759C10.4965 16.7326 10.3673 16.1185 10.1234 15.5336C9.87956 14.9488 9.50415 14.4967 8.9972 14.1772C8.4902 13.8463 7.9782 13.682 7.4612 13.6843C6.69145 13.6877 5.99789 14.0298 5.38052 14.7104C4.76315 15.391 4.41684 16.3117 4.34161 17.4724L8.27087 17.4721C8.52363 17.471 8.8797 17.4521 9.3391 17.4156C9.67213 17.3797 9.90757 17.3614 10.0454 17.3608C10.1488 17.3603 10.304 17.3653 10.5108 17.3759ZM30.3359 22.6642C30.5202 22.7668 30.6583 22.8351 30.7504 22.8692C31.0152 22.9829 31.2283 23.1256 31.39 23.2972C31.0849 24.4475 30.3368 25.4446 29.1457 26.2886C27.9546 27.1326 26.4457 27.5587 24.619 27.5669C23.4701 27.572 22.3316 27.3358 21.2036 26.8583C20.0755 26.3808 19.1765 25.7472 18.5066 24.9575C17.9869 24.3509 17.5929 23.6058 17.3247 22.7224C17.068 21.8389 16.9383 21.0869 16.9355 20.4665C16.9322 19.7197 17.0893 18.8746 17.4067 17.9311C17.7242 16.976 18.2601 16.0775 19.0147 15.2354C19.7692 14.3934 20.7198 13.7227 21.8665 13.2236C23.0246 12.7244 24.3275 12.4715 25.7751 12.4651C27.7627 12.4562 29.1485 12.7602 29.9325 13.3771C30.7165 13.994 31.1099 14.6127 31.1127 15.2331C31.1154 15.842 30.9567 16.3252 30.6366 16.6828C30.3279 17.0289 29.8979 17.2031 29.3464 17.2056C28.8754 17.2077 28.4381 17.0546 28.0346 16.7462C27.6426 16.4377 27.3128 15.9164 27.0453 15.1823C26.8361 14.6548 26.5702 14.2711 26.2474 14.0312C25.9247 13.8029 25.5393 13.6897 25.0912 13.6917C24.0113 13.6965 23.0483 14.1662 22.2023 15.1006C21.3562 16.0235 20.9367 17.2834 20.9439 18.8803C20.9524 20.799 21.4763 22.3247 22.5154 23.4575C23.5659 24.5787 24.7517 25.1364 26.073 25.1305C26.7278 25.1275 27.2847 25.0504 27.7436 24.899C28.0303 24.7943 28.42 24.5685 28.9124 24.2216C29.0384 24.1292 29.2728 23.8811 29.6157 23.4774C29.9701 23.0737 30.2101 22.8027 30.3359 22.6642ZM47.0161 14.5244C47.7546 15.2334 48.304 16.0524 48.6643 16.9814C49.0361 17.8989 49.2237 18.7655 49.2274 19.5812C49.2343 21.1207 49.0043 22.3626 48.5375 23.3068C47.8315 24.7346 46.8769 25.7901 45.6736 26.4733C44.4703 27.1565 43.0702 27.5017 41.4732 27.5088C39.6809 27.5169 38.1569 27.1215 36.901 26.3229C35.6566 25.5242 34.7621 24.6149 34.2176 23.5948C33.6845 22.5746 33.4146 21.3063 33.4079 19.7897C33.4044 19.02 33.5274 18.2497 33.7767 17.4788C34.0259 16.6964 34.3676 16.017 34.8016 15.4406C35.2471 14.8642 35.7332 14.3795 36.2599 13.9865C37.0272 13.4316 37.7952 13.0375 38.564 12.8043C39.3441 12.5596 40.2857 12.4347 41.3886 12.4298C43.7898 12.4191 45.6656 13.1173 47.0161 14.5244ZM37.6162 20.5292C37.7259 21.9534 37.8043 22.7745 37.8512 22.9926C38.004 23.7617 38.2425 24.4212 38.5666 24.9713C38.7865 25.3264 39.1498 25.6408 39.6566 25.9142C40.1633 26.1877 40.7671 26.3229 41.4679 26.3198C42.3066 26.316 43.012 26.0486 43.584 25.5176C44.1561 24.975 44.5659 24.1345 44.8136 22.9959C44.9711 22.2485 45.0461 21.0245 45.0385 19.3242C45.0291 17.2332 44.6779 15.7584 43.9847 14.8998C43.2915 14.0298 42.3819 13.5973 41.256 13.6023C40.3713 13.6062 39.6372 13.8565 39.0534 14.3532C38.4812 14.8498 38.0823 15.5811 37.8569 16.5472C37.7103 17.1682 37.6301 18.4956 37.6162 20.5292ZM52.6845 27.1658L52.5985 7.91465L57.687 7.89192L57.7022 11.2884L57.9278 11.2874C58.3238 10.1576 58.9883 9.2648 59.9212 8.60888C60.8541 7.95297 61.9723 7.62211 63.2758 7.61628C64.5959 7.61039 65.7212 7.93541 66.6516 8.59135C67.582 9.23894 68.2043 10.1219 68.5184 11.2401L68.719 11.2392C69.1067 10.1345 69.813 9.24986 70.8378 8.58519C71.8709 7.91212 73.0935 7.57243 74.5056 7.56612C76.302 7.55809 77.7626 8.12394 78.8874 9.26364C80.0205 10.395 80.5917 12.0051 80.601 14.0939L80.6588 27.0408L75.3322 27.0646L75.279 15.1705C75.2743 14.101 74.9866 13.3002 74.416 12.7679C73.8455 12.2357 73.134 11.9715 72.2818 11.9753C71.3125 11.9797 70.5577 12.2922 70.0174 12.9129C69.477 13.5253 69.2091 14.3328 69.2135 15.3355L69.2661 27.0917L64.0898 27.1148L64.0362 15.1079C64.0319 14.1638 63.757 13.413 63.2114 12.8556C62.6742 12.2982 61.9669 12.0214 61.0895 12.0253C60.4963 12.028 59.9622 12.1808 59.4873 12.4837C59.0207 12.7782 58.6507 13.1935 58.3774 13.7295C58.104 14.2571 57.9689 14.876 57.9721 15.5862L58.0237 27.1419L52.6845 27.1658ZM90.3675 27.3609C89.1392 27.3664 88.0437 27.1582 87.0809 26.7364C86.1181 26.3062 85.3549 25.6704 84.7913 24.829C84.236 23.9792 83.9555 22.9193 83.9499 21.6492C83.9451 20.5797 84.1374 19.6806 84.5269 18.9519C84.9163 18.2233 85.4485 17.636 86.1233 17.1901C86.7981 16.7443 87.5653 16.4066 88.425 16.1772C89.2929 15.9477 90.203 15.7849 91.1551 15.6887C92.2742 15.5667 93.1761 15.4541 93.8608 15.3507C94.5455 15.239 95.0419 15.0781 95.3502 14.8678C95.6584 14.6575 95.8116 14.3477 95.8098 13.9383L95.8094 13.8631C95.8059 13.0693 95.5525 12.4563 95.0492 12.024C94.5543 11.5917 93.8514 11.3776 92.9407 11.3817C91.9798 11.386 91.2162 11.6025 90.6499 12.0311C90.0836 12.4515 89.71 12.9795 89.529 13.6154L84.5891 13.2364C84.8345 12.0655 85.323 11.0523 86.0545 10.1967C86.7859 9.3328 87.7313 8.66848 88.8907 8.20374C90.0584 7.7306 91.4109 7.4906 92.9483 7.48374C94.0178 7.47896 95.042 7.59972 96.0207 7.84602C97.0077 8.09228 97.8826 8.47691 98.6453 8.99991C99.4164 9.52288 100.025 10.197 100.472 11.0222C100.918 11.8391 101.144 12.8198 101.149 13.9645L101.207 26.949L96.1437 26.9717L96.1318 24.3021L95.9814 24.3027C95.6749 24.9057 95.2637 25.4381 94.7477 25.9C94.2317 26.3535 93.6108 26.7114 92.885 26.9737C92.1592 27.2276 91.32 27.3567 90.3675 27.3609ZM91.8801 23.6693C92.6655 23.6658 93.3583 23.5081 93.9585 23.1963C94.5587 22.8761 95.0289 22.4479 95.3691 21.9116C95.7093 21.3753 95.8779 20.7687 95.8748 20.0919L95.8657 18.049C95.6991 18.1584 95.4698 18.2597 95.1777 18.3529C94.894 18.4377 94.5727 18.5185 94.2137 18.5953C93.8547 18.6638 93.4957 18.7281 93.1367 18.7882C92.7776 18.8399 92.452 18.8873 92.1597 18.9304C91.5335 19.0251 90.9868 19.1738 90.5198 19.3764C90.0528 19.579 89.6906 19.8522 89.4331 20.1959C89.1755 20.5313 89.0479 20.9497 89.0501 21.451C89.0534 22.1779 89.3191 22.7324 89.8472 23.1144C90.3836 23.488 91.0612 23.673 91.8801 23.6693ZM105.349 26.9305L105.263 7.67939L110.44 7.65627L110.455 11.0152L110.655 11.0143C111.001 9.81789 111.586 8.91286 112.41 8.29921C113.235 7.67721 114.186 7.3638 115.264 7.35898C115.531 7.35779 115.819 7.37321 116.129 7.40525C116.438 7.4373 116.71 7.48204 116.944 7.53948L116.965 12.2771C116.714 12.203 116.367 12.1377 115.924 12.0812C115.481 12.0247 115.076 11.9972 114.708 11.9989C113.923 12.0024 113.221 12.1768 112.605 12.5222C111.996 12.8591 111.514 13.3292 111.157 13.9324C110.809 14.5355 110.636 15.2298 110.64 16.0153L110.689 26.9067L105.349 26.9305ZM124.604 21.3047L124.588 14.9001L125.365 14.8967L131.499 7.5622L137.628 7.53482L129.386 17.2475L128.12 17.2532L124.604 21.3047ZM119.791 26.866L119.676 1.19784L125.015 1.17398L125.13 26.8422L119.791 26.866ZM131.823 26.8123L126.12 18.4528L129.663 14.6644L138.077 26.7843L131.823 26.8123ZM148.315 27.1146C146.335 27.1235 144.629 26.73 143.196 25.9343C141.772 25.1301 140.673 23.9903 139.897 22.5148C139.122 21.031 138.73 19.2738 138.721 17.2434C138.712 15.2632 139.088 13.5235 139.85 12.0244C140.612 10.5254 141.689 9.35493 143.081 8.51315C144.481 7.67132 146.125 7.24619 148.013 7.23776C149.283 7.23209 150.467 7.43151 151.563 7.83605C152.668 8.23218 153.631 8.83367 154.454 9.6405C155.285 10.4473 155.933 11.4638 156.398 12.69C156.863 13.9079 157.099 15.3356 157.106 16.9733L157.113 18.4397L140.857 18.5123L140.842 15.2035L152.072 15.1534C152.069 14.3847 151.898 13.7044 151.562 13.1127C151.225 12.5209 150.759 12.0593 150.164 11.7277C149.578 11.3877 148.896 11.2195 148.119 11.223C147.308 11.2266 146.591 11.4178 145.966 11.7966C145.349 12.167 144.867 12.6663 144.519 13.2945C144.17 13.9144 143.994 14.6046 143.989 15.3649L144.003 18.5108C144.007 19.4633 144.186 20.2856 144.54 20.9775C144.903 21.6694 145.411 22.2019 146.064 22.575C146.717 22.9481 147.491 23.1326 148.385 23.1286C148.978 23.126 149.521 23.04 150.013 22.8707C150.506 22.7014 150.926 22.4488 151.276 22.113C151.625 21.7773 151.891 21.3666 152.073 20.8812L157.012 21.185C156.767 22.3726 156.258 23.411 155.484 24.3001C154.72 25.1809 153.728 25.8705 152.511 26.3689C151.301 26.859 149.903 27.1075 148.315 27.1146ZM170.788 7.3867L170.805 11.3974L159.212 11.4491L159.194 7.43848L170.788 7.3867ZM161.806 2.81447L167.145 2.79062L167.225 20.7383C167.227 21.2313 167.304 21.6153 167.456 21.8904C167.607 22.1571 167.817 22.3441 168.085 22.4516C168.361 22.559 168.679 22.6118 169.038 22.6102C169.289 22.6091 169.539 22.5871 169.79 22.5442C170.04 22.493 170.232 22.4545 170.366 22.4288L171.223 26.3981C170.956 26.4829 170.581 26.5807 170.097 26.6914C169.613 26.8106 169.024 26.8842 168.33 26.9124C167.044 26.9683 165.915 26.802 164.944 26.4137C163.981 26.0252 163.231 25.4186 162.692 24.5938C162.154 23.769 161.886 22.7257 161.889 21.464L161.806 2.81447Z" fill="black"/>
</svg>
