<svg width="25" height="25" viewBox="0 0 25 25" fill="none" xmlns="http://www.w3.org/2000/svg">
<path opacity="0.34" fill-rule="evenodd" clip-rule="evenodd" d="M12.2108 0.266953C5.58347 0.296557 0.234937 5.69309 0.264541 12.3204C0.294146 18.9478 5.69067 24.2963 12.318 24.2667C18.9454 24.2371 24.2939 18.8406 24.2643 12.2132C24.2501 9.03066 22.9722 5.98409 20.7117 3.74373C18.4512 1.50337 15.3934 0.252736 12.2108 0.266953ZM12.2269 3.86664C14.2151 3.85776 15.834 5.46232 15.8429 7.45052C15.8518 9.43873 14.2472 11.0577 12.259 11.0666C10.2708 11.0755 8.65187 9.47089 8.64299 7.48269C8.63411 5.49448 10.2387 3.87552 12.2269 3.86664ZM12.3017 20.651C14.9598 20.6392 17.4553 19.3699 19.0305 17.2288C19.2744 16.8688 19.3045 16.4049 19.1091 16.0164L18.8305 15.4537C18.2212 14.2241 16.9659 13.4478 15.5936 13.4521L8.94563 13.4818C7.5538 13.4895 6.29111 14.2989 5.70289 15.5603L5.45325 16.0894C5.26599 16.4764 5.30007 16.9341 5.54261 17.289C7.1368 19.416 9.64363 20.6629 12.3017 20.651Z" fill="black"/>
</svg>
