<svg width="25" height="25" viewBox="0 0 25 25" fill="none" xmlns="http://www.w3.org/2000/svg">
<path fill-rule="evenodd" clip-rule="evenodd" d="M18.7316 16.9277L24.0878 22.2426C24.3271 22.5064 24.3172 22.9119 24.0652 23.1636L23.1362 24.1021C23.0117 24.229 22.8416 24.3008 22.6639 24.3016C22.4862 24.3024 22.3155 24.2321 22.1898 24.1063L16.8336 18.7914C16.6855 18.6443 16.5509 18.4841 16.4316 18.3127L15.4258 16.9825C13.7774 18.3125 11.7264 19.0417 9.60941 19.0506C5.24716 19.0852 1.443 16.0893 0.44912 11.8365C-0.544762 7.58372 1.53688 3.20904 5.46166 1.30242C9.38643 -0.604209 14.1069 0.466071 16.8283 3.87962C19.5498 7.29317 19.546 12.139 16.8191 15.5481L18.1563 16.4631C18.3651 16.5956 18.5581 16.7515 18.7316 16.9277ZM2.90188 9.73782C2.91834 13.4234 5.91587 16.3979 9.59704 16.3814C11.3648 16.3735 13.057 15.6629 14.3014 14.4058C15.5458 13.1487 16.2405 11.4482 16.2326 9.67827C16.2161 5.99266 13.2186 3.01822 9.53742 3.03466C5.85625 3.05111 2.88542 6.05221 2.90188 9.73782Z" fill="#252424"/>
</svg>
